<?xml version="1.0" encoding="UTF-8"?>
<svg id="Capa_1" data-name="Capa 1" xmlns="http://www.w3.org/2000/svg" viewBox="0 0 96.6371 86.04678">
  <defs>
    <style>
      .cls-1 {
        fill: #b1efe3;
      }

      .cls-2 {
        fill: #69a89c;
      }

      .cls-3 {
        fill: #83e1cf;
      }

      .cls-4 {
        fill: #71bfb0;
      }
    </style>
  </defs>
  <polygon class="cls-1" points="24.51983 31.59249 39.5504 19.25558 39.58338 19.22851 24.51983 6.86454 9.45628 19.22851 9.48926 19.25558 24.51983 31.59249"/>
  <polygon class="cls-2" points="24.51983 54.39426 9.48926 66.73117 9.45628 66.75824 24.51983 79.12221 39.58338 66.75824 39.5504 66.73117 24.51983 54.39426"/>
  <polygon class="cls-3" points="9.48926 19.25558 9.44939 19.25558 9.44939 66.73117 9.48926 66.73117 24.51983 54.39426 24.51983 31.59249 9.48926 19.25558"/>
  <polygon class="cls-4" points="57.51496 34.48175 39.59027 34.48175 39.59027 19.25558 39.5504 19.25558 24.51983 31.59249 24.51983 54.39426 39.5504 66.73117 39.59027 66.73117 39.59027 51.3789 57.51496 34.79856 57.51496 34.48175"/>
  <polygon class="cls-1" points="72.5854 31.59249 87.61597 19.25558 87.64895 19.22851 72.5854 6.86454 57.52185 19.22851 57.55483 19.25558 72.5854 31.59249"/>
  <polygon class="cls-2" points="72.5854 54.39426 57.55483 66.73117 57.52185 66.75824 72.5854 79.12221 87.64895 66.75824 87.61597 66.73117 72.5854 54.39426"/>
  <polygon class="cls-3" points="57.55482 19.25558 57.51496 19.25558 57.51496 34.48175 57.51496 34.79856 39.59027 51.3789 57.51496 51.3789 57.51496 66.73117 57.55482 66.73117 72.5854 54.39426 72.5854 31.59249 57.55482 19.25558"/>
  <polygon class="cls-4" points="87.61597 19.25558 72.5854 31.59249 72.5854 54.39426 87.61597 66.73117 87.65584 66.73117 87.65584 19.25558 87.61597 19.25558"/>
  <polygon class="cls-4" points="39.61597 19.25558 24.5854 31.59249 24.5854 54.39426 39.61597 66.73117 39.65584 66.73117 39.65584 19.25558 39.61597 19.25558"/>
</svg>