<?xml version="1.0" encoding="UTF-8"?>
<svg id="Capa_1" data-name="Capa 1" xmlns="http://www.w3.org/2000/svg" viewBox="0 0 105.6371 83.04678">
  <defs>
    <style>
      .cls-1 {
        fill: #e20397;
      }

      .cls-2 {
        fill: #ff009d;
      }

      .cls-3 {
        fill: #b70b8b;
      }

      .cls-4 {
        fill: #900f7f;
      }
    </style>
  </defs>
  <polygon class="cls-2" points="28.51983 29.59249 43.5504 17.25558 43.58338 17.22851 28.51983 4.86454 13.45628 17.22851 13.48926 17.25558 28.51983 29.59249"/>
  <polygon class="cls-4" points="28.51983 52.39426 13.48926 64.73117 13.45628 64.75824 28.51983 77.12221 43.58338 64.75824 43.5504 64.73117 28.51983 52.39426"/>
  <polygon class="cls-1" points="13.48926 17.25558 13.44939 17.25558 13.44939 64.73117 13.48926 64.73117 28.51983 52.39426 28.51983 29.59249 13.48926 17.25558"/>
  <polygon class="cls-3" points="61.51496 32.48175 43.59027 32.48175 43.59027 17.25558 43.5504 17.25558 28.51983 29.59249 28.51983 52.39426 43.5504 64.73117 43.59027 64.73117 43.59027 49.3789 61.51496 32.79856 61.51496 32.48175"/>
  <polygon class="cls-2" points="76.5854 29.59249 91.61597 17.25558 91.64895 17.22851 76.5854 4.86454 61.52185 17.22851 61.55483 17.25558 76.5854 29.59249"/>
  <polygon class="cls-4" points="76.5854 52.39426 61.55483 64.73117 61.52185 64.75824 76.5854 77.12221 91.64895 64.75824 91.61597 64.73117 76.5854 52.39426"/>
  <polygon class="cls-1" points="61.55482 17.25558 61.51496 17.25558 61.51496 32.48175 61.51496 32.79856 43.59027 49.3789 61.51496 49.3789 61.51496 64.73117 61.55482 64.73117 76.5854 52.39426 76.5854 29.59249 61.55482 17.25558"/>
  <polygon class="cls-3" points="91.61597 17.25558 76.5854 29.59249 76.5854 52.39426 91.61597 64.73117 91.65584 64.73117 91.65584 17.25558 91.61597 17.25558"/>
</svg>