<!DOCTYPE svg PUBLIC "-//W3C//DTD SVG 1.1//EN" "http://www.w3.org/Graphics/SVG/1.1/DTD/svg11.dtd">
<!-- Uploaded to: SVG Repo, www.svgrepo.com, Transformed by: SVG Repo Mixer Tools -->
<svg version="1.1" id="Layer_1" xmlns="http://www.w3.org/2000/svg" xmlns:xlink="http://www.w3.org/1999/xlink" viewBox="0 0 512 512" xml:space="preserve" width="800px" height="800px" fill="#000000" stroke="#000000">
<g id="SVGRepo_bgCarrier" stroke-width="0"/>
<g id="SVGRepo_tracerCarrier" stroke-linecap="round" stroke-linejoin="round"/>
<g id="SVGRepo_iconCarrier"> <path style="fill:#3D3D3D;" d="M473.681,396.8v-294.4c0-7.069-5.73-12.8-12.8-12.8H51.36c-7.069,0-12.8,5.73-12.8,12.8l0,0v294.4 L473.681,396.8L473.681,396.8z"/> <rect x="57.757" y="106.643" style="fill:#FFFFFF;" width="396.722" height="290.158"/> <rect y="396.801" style="fill:#E8E8E8;" width="512" height="8.56"/> <polygon style="fill:#C9C9C9;" points="486.4,422.4 25.6,422.4 0,405.36 512,405.36 "/> <polygon style="fill:#939393;" points="293.68,308.32 218.08,208.96 140.56,304.16 133.92,298.8 218.32,195.2 293.921,294.56 371.441,199.359 378.081,204.799 "/> <g> <circle style="fill:#E20397;" cx="137.283" cy="301.437" r="27.68"/> <circle style="fill:#E20397;" cx="218.161" cy="202.076" r="27.68"/> <circle style="fill:#E20397;" cx="293.839" cy="301.437" r="27.68"/> <circle style="fill:#E20397;" cx="374.717" cy="202.076" r="27.68"/> </g> </g>
</svg>