<!DOCTYPE svg PUBLIC "-//W3C//DTD SVG 1.1//EN" "http://www.w3.org/Graphics/SVG/1.1/DTD/svg11.dtd">
<!-- Uploaded to: SVG Repo, www.svgrepo.com, Transformed by: SVG Repo Mixer Tools -->
<svg height="800px" width="800px" version="1.1" id="Capa_1" xmlns="http://www.w3.org/2000/svg" xmlns:xlink="http://www.w3.org/1999/xlink" viewBox="0 0 512.001 512.001" xml:space="preserve" fill="#000000">
<g id="SVGRepo_bgCarrier" stroke-width="0"/>
<g id="SVGRepo_tracerCarrier" stroke-linecap="round" stroke-linejoin="round"/>
<g id="SVGRepo_iconCarrier"> <g> <path style="fill:#3D3D3D;" d="M69.819,0C56.966,0,46.546,10.422,46.546,23.273v186.182c0,12.854,10.42,23.273,23.273,23.273 s23.273-10.418,23.273-23.273V23.273C93.092,10.422,82.672,0,69.819,0z"/> <path style="fill:#3D3D3D;" d="M256.001,0c-12.853,0-23.273,10.422-23.273,23.273v217.212c0,12.854,10.42,23.273,23.273,23.273 s23.273-10.418,23.273-23.273V23.273C279.274,10.422,268.854,0,256.001,0z"/> </g> <path style="fill:#FF009D;" d="M442.183,0C429.33,0,418.91,10.422,418.91,23.273v155.152c0,12.854,10.42,23.273,23.273,23.273 s23.273-10.418,23.273-23.273V23.273C465.456,10.422,455.036,0,442.183,0z"/> <g> <path style="fill:#3D3D3D;" d="M69.819,279.273c-12.853,0-23.273,10.422-23.273,23.273v186.182 c0,12.854,10.42,23.273,23.273,23.273s23.273-10.418,23.273-23.273V302.545C93.092,289.694,82.672,279.273,69.819,279.273z"/> <path style="fill:#3D3D3D;" d="M256.001,310.303c-12.853,0-23.273,10.422-23.273,23.273v155.152 c0,12.854,10.42,23.273,23.273,23.273s23.273-10.418,23.273-23.273V333.576C279.274,320.725,268.854,310.303,256.001,310.303z"/> </g> <g> <path style="fill:#FF009D;" d="M442.183,248.242c-12.853,0-23.273,10.422-23.273,23.273v217.212 c0,12.854,10.42,23.273,23.273,23.273s23.273-10.418,23.273-23.273V271.515C465.456,258.664,455.036,248.242,442.183,248.242z"/> <path style="fill:#FF009D;" d="M279.274,240.485V23.273C279.274,10.422,268.854,0,256.001,0v263.758 C268.854,263.758,279.274,253.339,279.274,240.485z"/> <path style="fill:#FF009D;" d="M279.274,488.727V333.576c0-12.851-10.42-23.273-23.273-23.273V512 C268.854,512,279.274,501.582,279.274,488.727z"/> </g> <path style="fill:#B70B8B;" d="M116.365,186.182H23.274c-12.853,0-23.273,10.421-23.273,23.273v93.091 c0,12.854,10.42,23.273,23.273,23.273h93.091c12.853,0,23.273-10.418,23.273-23.273v-93.091 C139.637,196.603,129.217,186.182,116.365,186.182z"/> <path style="fill:#E20397;" d="M488.728,155.152h-93.091c-12.853,0-23.273,10.422-23.273,23.273v93.091 c0,12.854,10.42,23.273,23.273,23.273h93.091c12.853,0,23.273-10.418,23.273-23.273v-93.091 C512,165.573,501.581,155.152,488.728,155.152z"/> <path style="fill:#B70B8B;" d="M302.546,217.212h-93.091c-12.853,0-23.273,10.422-23.273,23.273v93.091 c0,12.854,10.42,23.273,23.273,23.273h93.091c12.853,0,23.273-10.418,23.273-23.273v-93.091 C325.819,227.634,315.399,217.212,302.546,217.212z"/> <path style="fill:#E20397;" d="M302.546,217.212h-46.545v139.636h46.545c12.853,0,23.273-10.418,23.273-23.273v-93.091 C325.819,227.634,315.399,217.212,302.546,217.212z"/> </g>
</svg>